<?xml version="1.0" encoding="UTF-8" standalone="no"?>
<svg width="522px" height="443px" viewBox="0 0 522 443" version="1.1" xmlns="http://www.w3.org/2000/svg" xmlns:xlink="http://www.w3.org/1999/xlink">
    <!-- Generator: Sketch 3.8.3 (29802) - http://www.bohemiancoding.com/sketch -->
    <title>invision app logo</title>
    <desc>Created with Sketch.</desc>
    <defs>
        <linearGradient x1="50%" y1="0%" x2="50%" y2="100%" id="linearGradient-1">
            <stop stop-color="#FEFEFE" offset="0%"></stop>
            <stop stop-color="#E4E4E4" offset="48.1490947%"></stop>
            <stop stop-color="#CACACA" offset="100%"></stop>
        </linearGradient>
        <circle id="path-2" cx="512.042225" cy="512.042225" r="512"></circle>
        <filter x="-50%" y="-50%" width="200%" height="200%" filterUnits="objectBoundingBox" id="filter-3">
            <feMorphology radius="2" operator="dilate" in="SourceAlpha" result="shadowSpreadOuter1"></feMorphology>
            <feOffset dx="0" dy="4" in="shadowSpreadOuter1" result="shadowOffsetOuter1"></feOffset>
            <feMorphology radius="42" operator="erode" in="SourceAlpha" result="shadowInner"></feMorphology>
            <feOffset dx="0" dy="4" in="shadowInner" result="shadowInner"></feOffset>
            <feComposite in="shadowOffsetOuter1" in2="shadowInner" operator="out" result="shadowOffsetOuter1"></feComposite>
            <feGaussianBlur stdDeviation="4" in="shadowOffsetOuter1" result="shadowBlurOuter1"></feGaussianBlur>
            <feColorMatrix values="0 0 0 0 0   0 0 0 0 0   0 0 0 0 0  0 0 0 0.5 0" type="matrix" in="shadowBlurOuter1"></feColorMatrix>
        </filter>
        <mask id="mask-4" maskContentUnits="userSpaceOnUse" maskUnits="objectBoundingBox" x="0" y="0" width="1024" height="1024" fill="white">
            <use xlink:href="#path-2"></use>
        </mask>
        <linearGradient x1="50%" y1="8.32667268e-15%" x2="50%" y2="79.658252%" id="linearGradient-5">
            <stop stop-color="#FF3366" offset="0%"></stop>
            <stop stop-color="#FC3063" offset="68.9134247%"></stop>
            <stop stop-color="#ED164B" offset="100%"></stop>
        </linearGradient>
    </defs>
    <g id="Page-1" stroke="none" stroke-width="1" fill="none" fill-rule="evenodd">
        <g id="1024" transform="translate(-274.000000, -276.000000)">
            <g id="Ready-for-Fluid!" transform="translate(1.000000, 1.000000)">
                <g id="Outside">
                    <use fill="black" fill-opacity="1" filter="url(#filter-3)" xlink:href="#path-2"></use>
                    <use stroke="url(#linearGradient-1)" mask="url(#mask-4)" stroke-width="80" xlink:href="#path-2"></use>
                </g>
                <path d="M511.952626,986.952626 C774.287882,986.952626 986.952626,774.287882 986.952626,511.952626 C986.952626,249.61737 774.287882,36.9526262 511.952626,36.9526262 C249.61737,36.9526262 36.9526262,249.61737 36.9526262,511.952626 C36.9526262,774.287882 249.61737,986.952626 511.952626,986.952626 Z" id="Inside" fill="url(#linearGradient-5)"></path>
            </g>
            <g id="invision-app-logo" transform="translate(274.000000, 276.000000)">
                <path d="M157.192386,408.697156 C142.099437,424.223904 123.827049,434.435285 102.061569,437.151731 C82.8267716,439.552995 64.1281358,437.656558 47.5258918,426.491616 C34.8269043,417.952305 28.1302459,405.409108 25.210846,390.745105 C21.4818421,372.015782 24.0902683,353.612326 28.5886641,335.36646 C39.1832173,292.352054 49.8313867,249.356344 60.4473864,206.34995 C60.6967016,205.342969 60.8361036,204.306606 61.1015036,202.869587 L9,202.869587 C9.51471514,200.700703 9.87662422,198.999252 10.3296808,197.319168 C14.8736503,180.451559 19.4497896,163.594634 23.9642703,146.719012 C24.5460056,144.536773 25.3448864,143.358845 28.017652,143.364187 C68.1225397,143.463015 108.227427,143.430963 148.332315,143.438976 C149.174089,143.438976 150.015863,143.535133 151.286566,143.612594 C151.018485,145.073652 150.852275,146.387803 150.527897,147.664559 C133.831825,213.633873 117.033882,279.579147 100.528147,345.59921 C98.5523914,353.500142 97.5363652,361.764336 97.161052,369.908333 C96.5980823,382.085598 103.801413,389.05968 116.186746,388.90476 C134.528835,388.67505 150.318794,381.634192 164.170529,370.007161 C175.947318,360.126989 184.783262,347.893632 190.603296,333.8226 C193.667459,326.413139 194.948886,318.261129 196.924641,310.418959 C205.634586,275.823666 214.309681,241.217689 222.990137,206.611712 C223.268941,205.492547 223.472683,204.357355 223.797061,202.813495 L171.143311,202.813495 C171.47305,201.061294 171.631218,199.725774 171.979723,198.443676 C176.655052,181.170068 181.39204,163.915159 186.008391,146.628196 C186.624977,144.320419 187.544494,143.364187 190.11807,143.3722 C225.933665,143.460344 261.749259,143.430963 297.564854,143.438976 C298.508499,143.438976 299.452143,143.556502 300.950715,143.658001 C296.347768,164.606958 291.803798,185.294152 287.093618,206.737251 C291.771628,200.019588 295.69365,193.788055 300.20545,188.015941 C315.791668,168.068624 334.198096,151.358606 358.392388,142.578902 C387.251286,132.105759 413.901199,136.528999 436.913254,157.33639 C449.218163,168.461266 455.812951,183.045138 459.16128,199.060686 C464.351324,223.896003 461.238906,248.223824 454.437696,272.340632 C446.805436,299.406267 439.299174,326.503954 431.961802,353.647049 C430.187107,360.209791 429.393588,366.938138 430.104002,373.885509 C431.605255,388.541499 449.491785,393.333433 459.038142,389.163942 C464.086104,386.960335 467.675706,382.927066 470.865867,378.573273 C478.01022,368.821311 482.572956,357.773895 486.907822,346.616967 C487.218796,345.823668 487.519046,345.025028 487.86219,344.245084 C494.529359,345.812984 494.352247,345.628591 500.416234,347.947053 C503.410697,349.092928 506.450733,350.142646 509.362091,351.478166 C510.139525,351.836085 511.160913,353.270433 510.978618,353.87943 C503.38657,378.981851 493.411283,402.8182 472.761019,420.412332 C456.046181,434.656981 436.422667,439.579706 414.726887,437.605808 C402.247726,436.467946 390.500425,433.398922 380.109614,426.208486 C366.236432,416.606102 359.097441,402.909016 356.550673,386.634377 C353.631273,367.97183 357.245002,350.001081 362.44577,332.131833 C369.587442,307.587658 376.506608,282.974037 383.133565,258.285626 C386.149474,247.051238 386.731209,235.528377 383.476709,224.147081 C379.375072,209.803603 367.163992,200.356139 352.414186,198.852345 C322.413264,195.796676 305.162264,212.487997 295.130681,231.519148 C288.141814,244.778184 284.603148,259.156385 280.99478,273.534586 C267.960692,325.49163 254.875668,377.440662 241.852302,429.400377 C241.391203,431.238052 240.983721,432.405296 238.619248,432.397283 C215.242602,432.306467 191.865956,432.341191 168.489311,432.333178 C167.971915,432.333178 167.454519,432.247704 166.312495,432.146205 C170.516001,415.452213 174.65785,399.001286 178.553064,383.527959 C171.832278,391.514365 165.041792,400.617264 157.192386,408.697156 Z M77.6815962,50.183648 C77.6922017,25.6704789 97.749772,5.9867463 122.707063,6.0000067 C147.51853,6.01326709 167.621173,25.8985578 167.592008,50.4011185 C167.562843,74.7869877 147.295815,94.6855388 122.508211,94.6616701 C97.7259097,94.6351493 77.6709908,74.7365982 77.6815962,50.183648 Z" id="custom-shadow" fill="#000000" opacity="0.2"></path>
                <path d="M176.308166,385.893046 C169.31962,394.230788 162.258596,403.73414 154.096465,412.169481 C138.402203,428.379277 119.401832,439.039874 96.7692013,441.875822 C76.7680773,444.382722 57.3244759,442.402857 40.0607879,430.74675 C26.8558646,421.83178 19.8924071,408.736785 16.8566964,393.427688 C12.9791266,373.874429 15.6914742,354.661373 20.369089,335.61284 C31.3857359,290.706155 42.4581352,245.818989 53.4970831,200.920669 C53.7563311,199.869389 53.901287,198.787434 54.1772607,197.287198 L0,197.287198 C0.535221716,195.022902 0.911549485,193.246601 1.3826561,191.492607 C6.10766031,173.882963 10.8661159,156.284472 15.5604563,138.666462 C16.1653684,136.388223 16.9960771,135.158476 19.7753274,135.164053 C61.4780194,135.267229 103.180711,135.233766 144.883403,135.242132 C145.758714,135.242132 146.634025,135.342519 147.955353,135.423387 C147.676592,136.94872 147.50376,138.320683 147.166459,139.653606 C129.805204,208.525024 112.33802,277.371345 95.1746866,346.295746 C93.1202157,354.544254 92.0637104,363.172004 91.6734445,371.674269 C91.0880458,384.387234 98.5783622,391.668118 111.457135,391.506382 C130.529984,391.266568 146.949025,383.91597 161.352622,371.777445 C173.598606,361.462627 182.786579,348.691103 188.838487,334.001063 C192.024729,326.265646 193.357208,317.755015 195.411679,309.567855 C204.468634,273.450655 213.48935,237.3223 222.515641,201.193946 C222.805553,200.025547 223.017411,198.840416 223.354712,197.228639 L168.603203,197.228639 C168.94608,195.399355 169.110549,194.005084 169.472939,192.666584 C174.334536,174.633081 179.260248,156.619097 184.060518,138.571651 C184.701669,136.162351 185.65782,135.164053 188.333929,135.172418 C225.57644,135.26444 262.818951,135.233766 300.061462,135.242132 C301.042702,135.242132 302.023942,135.364828 303.582217,135.470792 C298.795886,157.34133 294.070882,178.93859 289.173045,201.325008 C294.03743,194.311824 298.115708,187.806155 302.807261,181.780115 C319.014444,160.955281 338.154195,143.51016 363.312403,134.344221 C393.321059,123.410347 421.03272,128.028173 444.961591,149.750918 C457.756735,161.365196 464.614264,176.590637 468.095992,193.310737 C473.492811,219.238604 470.256393,244.636647 463.184218,269.814395 C455.247884,298.070695 447.442567,326.360457 439.81287,354.697624 C437.96747,361.549072 437.142337,368.57341 437.881054,375.826409 C439.442117,391.12714 451.548721,393.522498 461.475411,389.169584 C466.724487,386.869036 470.457101,382.658337 473.77436,378.113013 C481.203349,367.932045 485.947867,356.398634 490.455437,344.750893 C490.7788,343.922696 491.091013,343.088922 491.447827,342.274668 C491.525881,342.096201 491.771191,341.990236 492.278536,341.569166 C498.380621,343.911542 504.68899,346.32642 510.994571,348.746874 C514.108334,349.943159 517.269488,351.039056 520.296835,352.433327 C521.105243,352.806992 522.167324,354.304439 521.977766,354.940227 C514.083246,381.146947 503.710537,406.031899 482.237554,424.400027 C464.856786,439.271324 444.451458,444.410607 421.891305,442.349874 C408.914966,441.161955 396.699646,437.95792 385.894857,430.451164 C371.468959,420.426355 364.045546,406.12671 361.397313,389.136121 C358.361603,369.652576 362.119305,350.891263 367.527274,332.235915 C374.953476,306.612 382.148305,280.915582 389.039285,255.141086 C392.17535,243.412477 392.780262,231.382705 389.396099,219.500726 C385.131051,204.526254 372.433474,194.66318 357.096026,193.093231 C325.899848,189.903138 307.961558,207.328739 297.530309,227.197103 C290.263002,241.039427 286.583353,256.050151 282.831226,271.060874 C269.277851,325.303599 255.671511,379.537959 242.129287,433.783472 C241.649817,435.701989 241.2261,436.920582 238.767425,436.912217 C214.459439,436.817406 190.151453,436.853657 165.843466,436.845292 C165.305457,436.845292 164.767448,436.756058 163.579925,436.650094 C167.950902,419.221704 172.257764,402.047072 176.308166,385.893046 Z M69.2701466,46.2322333 C69.2812355,20.5825053 90.2532335,-0.0138682116 116.348332,7.00639222e-06 C142.290956,0.0138822244 163.310082,20.8211591 163.279588,46.4597869 C163.249093,71.9763127 142.058088,92.7974648 116.140413,92.7724894 C90.2282833,92.744739 69.2590576,71.9235869 69.2701466,46.2322333 Z" id="invision" fill="#FFFFFF"></path>
            </g>
        </g>
    </g>
</svg>